<svg xmlns="http://www.w3.org/2000/svg" viewBox="0 0 1200 480" width="1200" height="480">
  <defs>
    <linearGradient id="sky" x1="0%" y1="0%" x2="0%" y2="100%">
      <stop offset="0%" style="stop-color:#87ceeb"/>
      <stop offset="100%" style="stop-color:#c8e6c9"/>
    </linearGradient>
    <linearGradient id="ground" x1="0%" y1="0%" x2="0%" y2="100%">
      <stop offset="0%" style="stop-color:#66bb6a"/>
      <stop offset="100%" style="stop-color:#388e3c"/>
    </linearGradient>
    <linearGradient id="sun" x1="0%" y1="0%" x2="100%" y2="100%">
      <stop offset="0%" style="stop-color:#fff176"/>
      <stop offset="100%" style="stop-color:#ffd54f"/>
    </linearGradient>
  </defs>

  <!-- Sky background -->
  <rect width="1200" height="480" fill="url(#sky)"/>

  <!-- Sun -->
  <circle cx="1080" cy="80" r="52" fill="url(#sun)" opacity="0.92"/>
  <circle cx="1080" cy="80" r="40" fill="#fff176"/>
  <!-- sun rays -->
  <line x1="1080" y1="16" x2="1080" y2="4"  stroke="#ffd54f" stroke-width="4" stroke-linecap="round"/>
  <line x1="1080" y1="144" x2="1080" y2="156" stroke="#ffd54f" stroke-width="4" stroke-linecap="round"/>
  <line x1="1016" y1="80" x2="1004" y2="80"  stroke="#ffd54f" stroke-width="4" stroke-linecap="round"/>
  <line x1="1144" y1="80" x2="1156" y2="80"  stroke="#ffd54f" stroke-width="4" stroke-linecap="round"/>
  <line x1="1034" y1="34" x2="1025" y2="25"  stroke="#ffd54f" stroke-width="4" stroke-linecap="round"/>
  <line x1="1126" y1="126" x2="1135" y2="135" stroke="#ffd54f" stroke-width="4" stroke-linecap="round"/>
  <line x1="1126" y1="34" x2="1135" y2="25"  stroke="#ffd54f" stroke-width="4" stroke-linecap="round"/>
  <line x1="1034" y1="126" x2="1025" y2="135" stroke="#ffd54f" stroke-width="4" stroke-linecap="round"/>

  <!-- Clouds -->
  <ellipse cx="180" cy="60" rx="55" ry="28" fill="#fff" opacity="0.85"/>
  <ellipse cx="225" cy="50" rx="40" ry="24" fill="#fff" opacity="0.85"/>
  <ellipse cx="140" cy="58" rx="36" ry="22" fill="#fff" opacity="0.85"/>
  <ellipse cx="550" cy="45" rx="45" ry="22" fill="#fff" opacity="0.75"/>
  <ellipse cx="590" cy="36" rx="32" ry="18" fill="#fff" opacity="0.75"/>
  <ellipse cx="516" cy="44" rx="30" ry="17" fill="#fff" opacity="0.75"/>
  <ellipse cx="820" cy="55" rx="38" ry="18" fill="#fff" opacity="0.6"/>
  <ellipse cx="855" cy="47" rx="28" ry="15" fill="#fff" opacity="0.6"/>

  <!-- Birds -->
  <path d="M700 90 Q705 85 710 90" stroke="#555" stroke-width="2" fill="none"/>
  <path d="M715 82 Q720 77 725 82" stroke="#555" stroke-width="2" fill="none"/>
  <path d="M730 95 Q735 90 740 95" stroke="#555" stroke-width="2" fill="none"/>

  <!-- Ground -->
  <rect x="0" y="310" width="1200" height="170" fill="url(#ground)"/>
  <rect x="0" y="305" width="1200" height="18" rx="6" fill="#81c784"/>

  <!-- River / path -->
  <path d="M0 360 Q200 340 400 355 Q600 370 800 350 Q1000 330 1200 345" stroke="#4fc3f7" stroke-width="18" fill="none" opacity="0.7"/>
  <path d="M0 360 Q200 340 400 355 Q600 370 800 350 Q1000 330 1200 345" stroke="#81d4fa" stroke-width="8" fill="none" opacity="0.5"/>

  <!-- ── BUILDINGS ── -->

  <!-- Building 1 - eco tower (center-left) -->
  <rect x="220" y="160" width="72" height="150" rx="6" fill="#43a047"/>
  <rect x="220" y="160" width="72" height="8"   rx="3" fill="#2e7d32"/>
  <!-- windows -->
  <rect x="228" y="176" width="12" height="12" rx="2" fill="#e0f7fa" opacity="0.9"/>
  <rect x="246" y="176" width="12" height="12" rx="2" fill="#e0f7fa" opacity="0.9"/>
  <rect x="264" y="176" width="12" height="12" rx="2" fill="#fff176" opacity="0.9"/>
  <rect x="228" y="196" width="12" height="12" rx="2" fill="#e0f7fa" opacity="0.9"/>
  <rect x="246" y="196" width="12" height="12" rx="2" fill="#fff176" opacity="0.9"/>
  <rect x="264" y="196" width="12" height="12" rx="2" fill="#e0f7fa" opacity="0.9"/>
  <rect x="228" y="216" width="12" height="12" rx="2" fill="#fff176" opacity="0.9"/>
  <rect x="246" y="216" width="12" height="12" rx="2" fill="#e0f7fa" opacity="0.9"/>
  <rect x="264" y="216" width="12" height="12" rx="2" fill="#e0f7fa" opacity="0.9"/>
  <rect x="228" y="236" width="12" height="12" rx="2" fill="#e0f7fa" opacity="0.9"/>
  <rect x="246" y="236" width="12" height="12" rx="2" fill="#e0f7fa" opacity="0.9"/>
  <rect x="264" y="236" width="12" height="12" rx="2" fill="#fff176" opacity="0.9"/>
  <!-- door -->
  <rect x="242" y="278" width="20" height="32" rx="3" fill="#1b5e20"/>
  <!-- rooftop garden -->
  <ellipse cx="234" cy="160" rx="10" ry="8" fill="#66bb6a"/>
  <ellipse cx="256" cy="158" rx="8"  ry="7" fill="#81c784"/>
  <ellipse cx="278" cy="161" rx="9"  ry="7" fill="#66bb6a"/>

  <!-- Building 2 - solar office (center) -->
  <rect x="340" y="130" width="90" height="180" rx="6" fill="#1565c0"/>
  <rect x="340" y="130" width="90" height="10"  rx="3" fill="#0d47a1"/>
  <!-- windows -->
  <rect x="350" y="148" width="14" height="14" rx="2" fill="#b3e5fc" opacity="0.9"/>
  <rect x="372" y="148" width="14" height="14" rx="2" fill="#fff" opacity="0.8"/>
  <rect x="394" y="148" width="14" height="14" rx="2" fill="#b3e5fc" opacity="0.9"/>
  <rect x="350" y="170" width="14" height="14" rx="2" fill="#fff" opacity="0.8"/>
  <rect x="372" y="170" width="14" height="14" rx="2" fill="#b3e5fc" opacity="0.9"/>
  <rect x="394" y="170" width="14" height="14" rx="2" fill="#b3e5fc" opacity="0.9"/>
  <rect x="350" y="192" width="14" height="14" rx="2" fill="#b3e5fc" opacity="0.9"/>
  <rect x="372" y="192" width="14" height="14" rx="2" fill="#b3e5fc" opacity="0.9"/>
  <rect x="394" y="192" width="14" height="14" rx="2" fill="#fff" opacity="0.8"/>
  <rect x="350" y="214" width="14" height="14" rx="2" fill="#fff" opacity="0.8"/>
  <rect x="372" y="214" width="14" height="14" rx="2" fill="#b3e5fc" opacity="0.9"/>
  <rect x="394" y="214" width="14" height="14" rx="2" fill="#b3e5fc" opacity="0.9"/>
  <rect x="350" y="236" width="14" height="14" rx="2" fill="#b3e5fc" opacity="0.9"/>
  <rect x="372" y="236" width="14" height="14" rx="2" fill="#fff" opacity="0.8"/>
  <rect x="394" y="236" width="14" height="14" rx="2" fill="#b3e5fc" opacity="0.9"/>
  <!-- door -->
  <rect x="358" y="282" width="24" height="28" rx="3" fill="#0d47a1"/>
  <!-- solar panels on roof -->
  <rect x="344" y="122" width="82" height="12" rx="3" fill="#1a237e"/>
  <rect x="347" y="124" width="16" height="8"  rx="1" fill="#283593" stroke="#3949ab" stroke-width="0.5"/>
  <rect x="367" y="124" width="16" height="8"  rx="1" fill="#283593" stroke="#3949ab" stroke-width="0.5"/>
  <rect x="387" y="124" width="16" height="8"  rx="1" fill="#283593" stroke="#3949ab" stroke-width="0.5"/>
  <rect x="407" y="124" width="10" height="8"  rx="1" fill="#283593" stroke="#3949ab" stroke-width="0.5"/>

  <!-- Building 3 - small house with garden -->
  <rect x="480" y="220" width="65" height="90"  rx="4" fill="#ef6c00"/>
  <polygon points="480,220 545,220 512,185" fill="#bf360c"/>
  <!-- chimney -->
  <rect x="523" y="190" width="10" height="22" fill="#8d6e63"/>
  <!-- windows -->
  <rect x="490" y="234" width="16" height="16" rx="2" fill="#fff9c4" opacity="0.9"/>
  <rect x="518" y="234" width="16" height="16" rx="2" fill="#fff9c4" opacity="0.9"/>
  <!-- door -->
  <rect x="499" y="262" width="18" height="28" rx="3" fill="#4e342e"/>
  <!-- garden -->
  <ellipse cx="488" cy="310" rx="14" ry="10" fill="#66bb6a"/>
  <ellipse cx="540" cy="312" rx="12" ry="9"  fill="#81c784"/>
  <ellipse cx="514" cy="308" rx="10" ry="8"  fill="#a5d6a7"/>
  <!-- flowers -->
  <circle cx="488" cy="301" r="4" fill="#f06292"/>
  <circle cx="540" cy="303" r="4" fill="#ffb74d"/>
  <circle cx="514" cy="300" r="4" fill="#fff176"/>

  <!-- Building 4 - tall eco tower (right of center) -->
  <rect x="590" y="100" width="80" height="210" rx="6" fill="#2e7d32"/>
  <rect x="590" y="100" width="80" height="10"  rx="3" fill="#1b5e20"/>
  <!-- vertical garden strips -->
  <rect x="596" y="118" width="8" height="185" rx="4" fill="#66bb6a" opacity="0.5"/>
  <rect x="656" y="118" width="8" height="185" rx="4" fill="#66bb6a" opacity="0.5"/>
  <!-- windows -->
  <rect x="610" y="120" width="14" height="14" rx="2" fill="#e8f5e9" opacity="0.9"/>
  <rect x="632" y="120" width="14" height="14" rx="2" fill="#fff176" opacity="0.9"/>
  <rect x="610" y="142" width="14" height="14" rx="2" fill="#fff176" opacity="0.9"/>
  <rect x="632" y="142" width="14" height="14" rx="2" fill="#e8f5e9" opacity="0.9"/>
  <rect x="610" y="164" width="14" height="14" rx="2" fill="#e8f5e9" opacity="0.9"/>
  <rect x="632" y="164" width="14" height="14" rx="2" fill="#e8f5e9" opacity="0.9"/>
  <rect x="610" y="186" width="14" height="14" rx="2" fill="#fff176" opacity="0.9"/>
  <rect x="632" y="186" width="14" height="14" rx="2" fill="#e8f5e9" opacity="0.9"/>
  <rect x="610" y="208" width="14" height="14" rx="2" fill="#e8f5e9" opacity="0.9"/>
  <rect x="632" y="208" width="14" height="14" rx="2" fill="#fff176" opacity="0.9"/>
  <rect x="610" y="230" width="14" height="14" rx="2" fill="#e8f5e9" opacity="0.9"/>
  <rect x="632" y="230" width="14" height="14" rx="2" fill="#e8f5e9" opacity="0.9"/>
  <!-- door -->
  <rect x="615" y="278" width="22" height="32" rx="3" fill="#1b5e20"/>
  <!-- antenna / green flag -->
  <rect x="627" y="88"  width="3" height="16" fill="#4caf50"/>
  <polygon points="630,88 648,94 630,100" fill="#66bb6a"/>

  <!-- Building 5 - dome museum -->
  <rect x="720" y="200" width="100" height="110" rx="4" fill="#8d6e63"/>
  <ellipse cx="770" cy="200" rx="50" ry="36" fill="#6d4c41"/>
  <!-- dome highlight -->
  <ellipse cx="755" cy="190" rx="20" ry="14" fill="#a1887f" opacity="0.5"/>
  <!-- windows -->
  <rect x="730" y="218" width="16" height="16" rx="8" fill="#ffe082" opacity="0.8"/>
  <rect x="758" y="218" width="16" height="16" rx="8" fill="#ffe082" opacity="0.8"/>
  <rect x="786" y="218" width="16" height="16" rx="8" fill="#ffe082" opacity="0.8"/>
  <rect x="730" y="244" width="16" height="16" rx="2" fill="#ffe082" opacity="0.8"/>
  <rect x="758" y="244" width="16" height="16" rx="2" fill="#ffe082" opacity="0.8"/>
  <rect x="786" y="244" width="16" height="16" rx="2" fill="#ffe082" opacity="0.8"/>
  <!-- door -->
  <rect x="752" y="274" width="24" height="36" rx="12" fill="#4e342e"/>
  <!-- sign -->
  <rect x="730" y="305" width="80" height="12" rx="3" fill="#5d4037"/>
  <text x="770" y="315" text-anchor="middle" font-family="Arial, sans-serif" font-size="8" font-weight="bold" fill="#ffe082">MUSEU VERDE</text>

  <!-- Wind turbines (right side) -->
  <!-- Turbine 1 -->
  <rect x="920" y="180" width="6" height="130" rx="3" fill="#90a4ae"/>
  <rect x="917" y="310" width="12" height="8" rx="2" fill="#78909c"/>
  <g transform="rotate(-30, 923, 185)">
    <rect x="920" y="140" width="6" height="46" rx="3" fill="#eceff1"/>
  </g>
  <g transform="rotate(90, 923, 185)">
    <rect x="920" y="140" width="6" height="46" rx="3" fill="#eceff1"/>
  </g>
  <g transform="rotate(210, 923, 185)">
    <rect x="920" y="140" width="6" height="46" rx="3" fill="#eceff1"/>
  </g>
  <circle cx="923" cy="185" r="6" fill="#b0bec5"/>

  <!-- Turbine 2 (smaller, background) -->
  <rect x="980" y="200" width="5" height="110" rx="2" fill="#90a4ae" opacity="0.7"/>
  <rect x="977" y="310" width="10" height="7" rx="2" fill="#78909c" opacity="0.7"/>
  <g transform="rotate(20, 982, 204)">
    <rect x="979" y="166" width="5" height="38" rx="2" fill="#eceff1" opacity="0.7"/>
  </g>
  <g transform="rotate(140, 982, 204)">
    <rect x="979" y="166" width="5" height="38" rx="2" fill="#eceff1" opacity="0.7"/>
  </g>
  <g transform="rotate(260, 982, 204)">
    <rect x="979" y="166" width="5" height="38" rx="2" fill="#eceff1" opacity="0.7"/>
  </g>
  <circle cx="982" cy="204" r="5" fill="#b0bec5" opacity="0.7"/>

  <!-- Trees along street -->
  <!-- Tree 1 -->
  <rect x="153" y="268" width="10" height="42" rx="3" fill="#6d4c41"/>
  <ellipse cx="158" cy="260" rx="22" ry="18" fill="#388e3c"/>
  <ellipse cx="158" cy="250" rx="14" ry="12" fill="#43a047"/>
  <!-- Tree 2 -->
  <rect x="308" y="272" width="10" height="38" rx="3" fill="#6d4c41"/>
  <ellipse cx="313" cy="264" rx="20" ry="16" fill="#2e7d32"/>
  <ellipse cx="313" cy="254" rx="12" ry="11" fill="#43a047"/>
  <!-- Tree 3 -->
  <rect x="680" y="265" width="10" height="45" rx="3" fill="#6d4c41"/>
  <ellipse cx="685" cy="256" rx="22" ry="18" fill="#388e3c"/>
  <ellipse cx="685" cy="246" rx="14" ry="12" fill="#66bb6a"/>
  <!-- Tree 4 -->
  <rect x="840" y="268" width="10" height="42" rx="3" fill="#6d4c41"/>
  <ellipse cx="845" cy="260" rx="20" ry="16" fill="#2e7d32"/>
  <ellipse cx="845" cy="250" rx="13" ry="11" fill="#43a047"/>
  <!-- Tree 5 -->
  <rect x="1050" y="265" width="10" height="45" rx="3" fill="#6d4c41"/>
  <ellipse cx="1055" cy="255" rx="24" ry="19" fill="#388e3c"/>
  <ellipse cx="1055" cy="244" rx="15" ry="13" fill="#66bb6a"/>

  <!-- Road -->
  <rect x="0" y="300" width="1200" height="14" fill="#546e7a"/>
  <!-- road dashes -->
  <rect x="60"  y="305" width="60" height="4" rx="2" fill="#fff" opacity="0.6"/>
  <rect x="180" y="305" width="60" height="4" rx="2" fill="#fff" opacity="0.6"/>
  <rect x="300" y="305" width="60" height="4" rx="2" fill="#fff" opacity="0.6"/>
  <rect x="420" y="305" width="60" height="4" rx="2" fill="#fff" opacity="0.6"/>
  <rect x="540" y="305" width="60" height="4" rx="2" fill="#fff" opacity="0.6"/>
  <rect x="660" y="305" width="60" height="4" rx="2" fill="#fff" opacity="0.6"/>
  <rect x="780" y="305" width="60" height="4" rx="2" fill="#fff" opacity="0.6"/>
  <rect x="900" y="305" width="60" height="4" rx="2" fill="#fff" opacity="0.6"/>
  <rect x="1020" y="305" width="60" height="4" rx="2" fill="#fff" opacity="0.6"/>
  <rect x="1140" y="305" width="50" height="4" rx="2" fill="#fff" opacity="0.6"/>

  <!-- Electric bus on road -->
  <rect x="88" y="283" width="96" height="32" rx="6" fill="#1976d2"/>
  <rect x="90" y="283" width="92" height="6"  rx="3" fill="#42a5f5"/>
  <rect x="93" y="288" width="18" height="13" rx="2" fill="#e3f2fd" opacity="0.9"/>
  <rect x="116" y="288" width="18" height="13" rx="2" fill="#e3f2fd" opacity="0.9"/>
  <rect x="139" y="288" width="18" height="13" rx="2" fill="#e3f2fd" opacity="0.9"/>
  <rect x="162" y="288" width="16" height="13" rx="2" fill="#e3f2fd" opacity="0.9"/>
  <circle cx="106" cy="317" r="7" fill="#212121"/>
  <circle cx="106" cy="317" r="3" fill="#616161"/>
  <circle cx="166" cy="317" r="7" fill="#212121"/>
  <circle cx="166" cy="317" r="3" fill="#616161"/>
  <!-- ⚡ label -->
  <text x="130" y="303" text-anchor="middle" font-size="11" fill="#fff176">⚡ ELÉTRICO</text>

  <!-- Bicycle lane -->
  <rect x="0" y="294" width="1200" height="6" fill="#a5d6a7" opacity="0.6"/>
  <!-- cyclist -->
  <circle cx="800" cy="292" r="5" fill="#ff7043"/>
  <text x="800" y="297" text-anchor="middle" font-size="10">🚲</text>

  <!-- Solar panels on ground (park area) -->
  <g transform="translate(1080, 330)">
    <rect x="0"  y="0" width="26" height="16" rx="2" fill="#1a237e" transform="rotate(-10,13,8)"/>
    <rect x="30" y="0" width="26" height="16" rx="2" fill="#1a237e" transform="rotate(-10,43,8)"/>
    <rect x="60" y="0" width="26" height="16" rx="2" fill="#1a237e" transform="rotate(-10,73,8)"/>
    <line x1="13"  y1="16" x2="13"  y2="26" stroke="#78909c" stroke-width="2"/>
    <line x1="43"  y1="16" x2="43"  y2="26" stroke="#78909c" stroke-width="2"/>
    <line x1="73"  y1="16" x2="73"  y2="26" stroke="#78909c" stroke-width="2"/>
  </g>

  <!-- Recycling bins (street) -->
  <rect x="435" y="284" width="12" height="18" rx="3" fill="#1976d2"/>
  <rect x="434" y="281" width="14" height="5"  rx="2" fill="#1565c0"/>
  <text x="441" y="294" text-anchor="middle" font-size="6" fill="#fff" font-weight="bold">P</text>
  <rect x="452" y="284" width="12" height="18" rx="3" fill="#388e3c"/>
  <rect x="451" y="281" width="14" height="5"  rx="2" fill="#2e7d32"/>
  <text x="458" y="294" text-anchor="middle" font-size="6" fill="#fff" font-weight="bold">V</text>
  <rect x="469" y="284" width="12" height="18" rx="3" fill="#f57c00"/>
  <rect x="468" y="281" width="14" height="5"  rx="2" fill="#e65100"/>
  <text x="475" y="294" text-anchor="middle" font-size="6" fill="#fff" font-weight="bold">M</text>

  <!-- ── LEFT TEXT PANEL ── -->
  <!-- Dark overlay panel -->
  <rect x="0" y="0" width="200" height="480" fill="#1b5e20" opacity="0.82"/>

  <!-- MINI GAME label -->
  <rect x="16" y="24" width="130" height="28" rx="8" fill="#2e7d32"/>
  <rect x="16" y="24" width="130" height="28" rx="8" fill="none" stroke="#66bb6a" stroke-width="1.5"/>
  <text x="81" y="43" text-anchor="middle" font-family="'Arial Black', sans-serif" font-size="13" font-weight="900" fill="#a5d6a7" letter-spacing="2">MINI GAME</text>

  <!-- Main title -->
  <text x="16" y="108" font-family="'Arial Black', 'Impact', sans-serif" font-size="52" font-weight="900" fill="#ffffff" letter-spacing="-1">Cidade</text>
  <text x="16" y="162" font-family="'Arial Black', 'Impact', sans-serif" font-size="52" font-weight="900" fill="#69f0ae" letter-spacing="-1">Verde</text>

  <!-- subtitle -->
  <line x1="16" y1="178" x2="178" y2="178" stroke="#66bb6a" stroke-width="2" opacity="0.5"/>
  <text x="16" y="202" font-family="Arial, sans-serif" font-size="13" fill="#c8e6c9" font-weight="600">Construa uma cidade</text>
  <text x="16" y="220" font-family="Arial, sans-serif" font-size="13" fill="#c8e6c9" font-weight="600">sustentável e ecológica!</text>
  <text x="16" y="244" font-family="Arial, sans-serif" font-size="12" fill="#a5d6a7">♻ Recicle • ☀ Energia solar</text>
  <text x="16" y="262" font-family="Arial, sans-serif" font-size="12" fill="#a5d6a7">🌳 Plante • ⚡ Zero emissão</text>

  <!-- badge -->
  <rect x="16" y="284" width="158" height="36" rx="18" fill="#69f0ae" opacity="0.15"/>
  <rect x="16" y="284" width="158" height="36" rx="18" fill="none" stroke="#69f0ae" stroke-width="1.5"/>
  <text x="95" y="307" text-anchor="middle" font-family="Arial, sans-serif" font-size="14" font-weight="700" fill="#69f0ae">🌍 Salve o Planeta!</text>

  <!-- Crescer Verde branding -->
  <rect x="16" y="424" width="158" height="42" rx="8" fill="#ffffff" opacity="0.1"/>
  <rect x="16" y="424" width="158" height="42" rx="8" fill="none" stroke="#66bb6a" stroke-width="1.5"/>
  <text x="95" y="441" text-anchor="middle" font-family="'Arial Black', sans-serif" font-size="11" font-weight="900" fill="#c8e6c9">CRESCER</text>
  <text x="95" y="457" text-anchor="middle" font-family="'Arial Black', sans-serif" font-size="14" font-weight="900" fill="#69f0ae">VERDE</text>
</svg>
