<svg xmlns="http://www.w3.org/2000/svg" viewBox="0 0 1200 480" width="1200" height="480">
  <defs>
    <linearGradient id="parchment" x1="0%" y1="0%" x2="100%" y2="100%">
      <stop offset="0%" style="stop-color:#f0ead2"/>
      <stop offset="100%" style="stop-color:#e8dfc0"/>
    </linearGradient>
  </defs>

  <!-- Parchment background -->
  <rect width="1200" height="480" fill="url(#parchment)"/>
  <!-- Border frame -->
  <rect x="10" y="10" width="1180" height="460" rx="12" fill="none" stroke="#5a7a3a" stroke-width="6"/>
  <rect x="16" y="16" width="1168" height="448" rx="10" fill="none" stroke="#5a7a3a" stroke-width="2" stroke-dasharray="8,6"/>

  <!-- ── TITLE ── -->
  <!-- Label tag "MINI GAME" -->
  <rect x="50" y="36" width="140" height="30" rx="8" fill="#1a3a6b"/>
  <text x="120" y="57" text-anchor="middle"
    font-family="'Arial Black', sans-serif"
    font-size="14" font-weight="900" fill="#ffffff" letter-spacing="2">MINI GAME</text>

  <!-- "Cidade" line 1 -->
  <text x="50" y="120"
    font-family="'Arial Black', 'Impact', sans-serif"
    font-size="58" font-weight="900" fill="#1a3a6b"
    letter-spacing="-1">Cidade</text>

  <!-- "Coleta" line 2 orange -->
  <text x="50" y="178"
    font-family="'Arial Black', 'Impact', sans-serif"
    font-size="58" font-weight="900" fill="#e67e22"
    letter-spacing="-1">Coleta</text>

  <!-- "Seletiva" line 3 green -->
  <text x="50" y="236"
    font-family="'Arial Black', 'Impact', sans-serif"
    font-size="58" font-weight="900" fill="#27ae60"
    letter-spacing="-1">Seletiva</text>

  <!-- Divider -->
  <line x1="50" y1="254" x2="390" y2="254" stroke="#5a7a3a" stroke-width="2.5" opacity="0.4"/>

  <!-- Description -->
  <text x="50" y="284" font-family="Arial, sans-serif" font-size="15" fill="#3d5a27" font-weight="600">O caminhão de reciclagem precisa de</text>
  <text x="50" y="304" font-family="Arial, sans-serif" font-size="15" fill="#3d5a27" font-weight="600">você para limpar toda a cidade!</text>

  <!-- Recycling badge -->
  <rect x="50" y="326" width="180" height="38" rx="19" fill="#27ae60" opacity="0.18"/>
  <rect x="50" y="326" width="180" height="38" rx="19" fill="none" stroke="#27ae60" stroke-width="2"/>
  <text x="140" y="350" text-anchor="middle" font-family="Arial, sans-serif" font-size="16" font-weight="700" fill="#1a5c2e">♻ Coleta Seletiva</text>

  <!-- Trees left — larger, better positioned -->
  <g transform="translate(22, 368)">
    <rect x="14" y="52" width="14" height="48" rx="4" fill="#7d5a3c"/>
    <ellipse cx="21" cy="48" rx="26" ry="21" fill="#27ae60"/>
    <ellipse cx="21" cy="36" rx="16" ry="14" fill="#2ecc71"/>
  </g>
  <g transform="translate(80, 390)">
    <rect x="10" y="34" width="10" height="36" rx="3" fill="#7d5a3c"/>
    <ellipse cx="15" cy="30" rx="18" ry="15" fill="#27ae60"/>
    <ellipse cx="15" cy="20" rx="11" ry="10" fill="#2ecc71"/>
  </g>
  <g transform="translate(360, 370)">
    <rect x="10" y="50" width="12" height="42" rx="3" fill="#7d5a3c"/>
    <ellipse cx="16" cy="46" rx="22" ry="18" fill="#3d9140"/>
    <ellipse cx="16" cy="36" rx="13" ry="11" fill="#27ae60"/>
  </g>

  <!-- ── TOP-DOWN PIXEL CITY (right side) ── -->
  <g transform="translate(480, 30)">

    <!-- City base ground -->
    <rect x="0" y="0" width="680" height="430" rx="8" fill="#c8d8a8"/>

    <!-- === ROAD GRID === -->
    <!-- Horizontal roads -->
    <rect x="0"   y="100" width="680" height="36" fill="#888" opacity="0.9"/>
    <rect x="0"   y="240" width="680" height="36" fill="#888" opacity="0.9"/>
    <rect x="0"   y="380" width="680" height="36" fill="#888" opacity="0.9"/>
    <!-- Vertical roads -->
    <rect x="100" y="0"   width="36" height="430" fill="#888" opacity="0.9"/>
    <rect x="290" y="0"   width="36" height="430" fill="#888" opacity="0.9"/>
    <rect x="480" y="0"   width="36" height="430" fill="#888" opacity="0.9"/>
    <rect x="620" y="0"   width="36" height="430" fill="#888" opacity="0.9"/>

    <!-- Road dashes horizontal (white center lines) -->
    <rect x="0"   y="116" width="50" height="4" rx="2" fill="#f9f9f9" opacity="0.7"/>
    <rect x="70"  y="116" width="50" height="4" rx="2" fill="#f9f9f9" opacity="0.7"/>
    <rect x="156" y="116" width="50" height="4" rx="2" fill="#f9f9f9" opacity="0.7"/>
    <rect x="226" y="116" width="50" height="4" rx="2" fill="#f9f9f9" opacity="0.7"/>
    <rect x="346" y="116" width="50" height="4" rx="2" fill="#f9f9f9" opacity="0.7"/>
    <rect x="416" y="116" width="50" height="4" rx="2" fill="#f9f9f9" opacity="0.7"/>
    <rect x="536" y="116" width="50" height="4" rx="2" fill="#f9f9f9" opacity="0.7"/>
    <rect x="606" y="116" width="50" height="4" rx="2" fill="#f9f9f9" opacity="0.7"/>
    <rect x="0"   y="256" width="50" height="4" rx="2" fill="#f9f9f9" opacity="0.7"/>
    <rect x="70"  y="256" width="50" height="4" rx="2" fill="#f9f9f9" opacity="0.7"/>
    <rect x="156" y="256" width="50" height="4" rx="2" fill="#f9f9f9" opacity="0.7"/>
    <rect x="226" y="256" width="50" height="4" rx="2" fill="#f9f9f9" opacity="0.7"/>
    <rect x="346" y="256" width="50" height="4" rx="2" fill="#f9f9f9" opacity="0.7"/>
    <rect x="416" y="256" width="50" height="4" rx="2" fill="#f9f9f9" opacity="0.7"/>
    <rect x="536" y="256" width="50" height="4" rx="2" fill="#f9f9f9" opacity="0.7"/>

    <!-- Road dashes vertical -->
    <rect x="116" y="0"   width="4" height="50" rx="2" fill="#f9f9f9" opacity="0.7"/>
    <rect x="116" y="70"  width="4" height="20" rx="2" fill="#f9f9f9" opacity="0.7"/>
    <rect x="116" y="156" width="4" height="74" rx="2" fill="#f9f9f9" opacity="0.7"/>
    <rect x="116" y="296" width="4" height="74" rx="2" fill="#f9f9f9" opacity="0.7"/>
    <rect x="116" y="416" width="4" height="14" rx="2" fill="#f9f9f9" opacity="0.7"/>
    <rect x="306" y="0"   width="4" height="50" rx="2" fill="#f9f9f9" opacity="0.7"/>
    <rect x="306" y="70"  width="4" height="60" rx="2" fill="#f9f9f9" opacity="0.7"/>
    <rect x="306" y="156" width="4" height="74" rx="2" fill="#f9f9f9" opacity="0.7"/>
    <rect x="306" y="296" width="4" height="74" rx="2" fill="#f9f9f9" opacity="0.7"/>
    <rect x="496" y="0"   width="4" height="50" rx="2" fill="#f9f9f9" opacity="0.7"/>
    <rect x="496" y="70"  width="4" height="60" rx="2" fill="#f9f9f9" opacity="0.7"/>
    <rect x="496" y="156" width="4" height="74" rx="2" fill="#f9f9f9" opacity="0.7"/>
    <rect x="496" y="296" width="4" height="74" rx="2" fill="#f9f9f9" opacity="0.7"/>

    <!-- === CITY BLOCKS === -->
    <!-- Block (0,0): park/green -->
    <rect x="6"   y="6"   width="88" height="88" rx="4" fill="#5cb85c"/>
    <ellipse cx="28" cy="28" rx="14" ry="12" fill="#3d9140"/>
    <ellipse cx="65" cy="20" rx="10" ry="9"  fill="#3d9140"/>
    <ellipse cx="22" cy="68" rx="9"  ry="8"  fill="#3d9140"/>
    <ellipse cx="68" cy="62" rx="13" ry="11" fill="#3d9140"/>
    <rect x="30" y="36" width="30" height="20" rx="2" fill="#e8d5b0" stroke="#bbb" stroke-width="1"/>
    <text x="45" y="50" text-anchor="middle" font-size="9" fill="#555">⛲</text>

    <!-- Block (2,0): houses -->
    <rect x="142" y="6"  width="142" height="88" rx="4" fill="#d4e8b0"/>
    <!-- House 1 -->
    <rect x="150" y="30" width="30" height="28" fill="#e74c3c"/>
    <polygon points="150,30 180,30 165,16" fill="#c0392b"/>
    <rect x="158" y="40" width="8" height="12" fill="#7b5e3d"/>
    <!-- House 2 -->
    <rect x="192" y="35" width="28" height="25" fill="#3498db"/>
    <polygon points="192,35 220,35 206,22" fill="#2980b9"/>
    <rect x="200" y="45" width="7" height="10" fill="#7b5e3d"/>
    <!-- House 3 -->
    <rect x="233" y="28" width="26" height="32" fill="#f39c12"/>
    <polygon points="233,28 259,28 246,14" fill="#e67e22"/>
    <rect x="240" y="40" width="7" height="14" fill="#7b5e3d"/>

    <!-- Block (4,0): office building -->
    <rect x="332" y="6"  width="142" height="88" rx="4" fill="#b0c8d4"/>
    <rect x="350" y="14" width="50" height="74" rx="3" fill="#2c8cbf"/>
    <!-- windows -->
    <rect x="356" y="20" width="8" height="8" rx="1" fill="#a8d8f0"/>
    <rect x="370" y="20" width="8" height="8" rx="1" fill="#a8d8f0"/>
    <rect x="384" y="20" width="8" height="8" rx="1" fill="#a8d8f0"/>
    <rect x="356" y="34" width="8" height="8" rx="1" fill="#fff" opacity="0.8"/>
    <rect x="370" y="34" width="8" height="8" rx="1" fill="#a8d8f0"/>
    <rect x="384" y="34" width="8" height="8" rx="1" fill="#a8d8f0"/>
    <rect x="356" y="48" width="8" height="8" rx="1" fill="#a8d8f0"/>
    <rect x="370" y="48" width="8" height="8" rx="1" fill="#fff" opacity="0.8"/>
    <rect x="384" y="48" width="8" height="8" rx="1" fill="#a8d8f0"/>
    <rect x="356" y="62" width="8" height="8" rx="1" fill="#a8d8f0"/>
    <rect x="370" y="62" width="8" height="8" rx="1" fill="#a8d8f0"/>
    <rect x="384" y="62" width="8" height="8" rx="1" fill="#fff" opacity="0.8"/>
    <!-- second building -->
    <rect x="414" y="26" width="40" height="62" rx="3" fill="#8e44ad"/>
    <rect x="420" y="34" width="7" height="7" rx="1" fill="#d7bde2"/>
    <rect x="432" y="34" width="7" height="7" rx="1" fill="#d7bde2"/>
    <rect x="420" y="46" width="7" height="7" rx="1" fill="#fff" opacity="0.7"/>
    <rect x="432" y="46" width="7" height="7" rx="1" fill="#d7bde2"/>
    <rect x="420" y="58" width="7" height="7" rx="1" fill="#d7bde2"/>
    <rect x="432" y="58" width="7" height="7" rx="1" fill="#fff" opacity="0.7"/>

    <!-- Block (0,2): residential -->
    <rect x="6"   y="142" width="88" height="92" rx="4" fill="#d4e8b0"/>
    <rect x="14"  y="150" width="26" height="24" rx="2" fill="#e74c3c"/>
    <polygon points="14,150 40,150 27,138" fill="#c0392b"/>
    <rect x="50"  y="155" width="24" height="22" rx="2" fill="#27ae60"/>
    <polygon points="50,155 74,155 62,143" fill="#1e8449"/>
    <rect x="14"  y="186" width="24" height="20" rx="2" fill="#f39c12"/>
    <polygon points="14,186 38,186 26,174" fill="#e67e22"/>
    <rect x="50"  y="188" width="22" height="18" rx="2" fill="#3498db"/>
    <polygon points="50,188 72,188 61,176" fill="#2980b9"/>

    <!-- Block (2,2): park with pond -->
    <rect x="142" y="142" width="142" height="92" rx="4" fill="#5cb85c"/>
    <ellipse cx="213" cy="188" rx="40" ry="28" fill="#3498db" opacity="0.7"/>
    <ellipse cx="213" cy="188" rx="30" ry="20" fill="#5dade2" opacity="0.6"/>
    <ellipse cx="155" cy="158" rx="12" ry="10" fill="#3d9140"/>
    <ellipse cx="270" cy="155" rx="10" ry="9"  fill="#3d9140"/>
    <ellipse cx="158" cy="216" rx="10" ry="9"  fill="#3d9140"/>
    <ellipse cx="268" cy="215" rx="12" ry="10" fill="#3d9140"/>

    <!-- Block (4,2): commercial/market -->
    <rect x="332" y="142" width="142" height="92" rx="4" fill="#fdebd0"/>
    <rect x="340" y="150" width="55" height="70" rx="3" fill="#e67e22"/>
    <rect x="344" y="156" width="10" height="10" rx="1" fill="#fff" opacity="0.7"/>
    <rect x="360" y="156" width="10" height="10" rx="1" fill="#fff" opacity="0.7"/>
    <rect x="344" y="172" width="10" height="10" rx="1" fill="#fff" opacity="0.7"/>
    <rect x="360" y="172" width="10" height="10" rx="1" fill="#fff" opacity="0.7"/>
    <rect x="350" y="192" width="16" height="28" rx="1" fill="#7b5e3d"/>
    <!-- store sign -->
    <rect x="338" y="148" width="60" height="10" rx="2" fill="#c0392b"/>
    <text x="368" y="157" text-anchor="middle" font-size="7" fill="#fff" font-weight="bold">MERCADO</text>
    <rect x="405" y="160" width="50" height="50" rx="3" fill="#f1c40f"/>
    <rect x="409" y="166" width="8" height="8" rx="1" fill="#e67e22"/>
    <rect x="422" y="166" width="8" height="8" rx="1" fill="#e67e22"/>
    <rect x="409" y="180" width="8" height="8" rx="1" fill="#e67e22"/>
    <rect x="422" y="180" width="8" height="8" rx="1" fill="#e67e22"/>

    <!-- Block (6,0): top-right -->
    <rect x="522" y="6"   width="92" height="88" rx="4" fill="#d4e8b0"/>
    <rect x="530" y="12"  width="34" height="30" rx="2" fill="#9b59b6"/>
    <rect x="534" y="17"  width="7"  height="7"  rx="1" fill="#d7bde2"/>
    <rect x="546" y="17"  width="7"  height="7"  rx="1" fill="#d7bde2"/>
    <rect x="530" y="46"  width="30" height="26" rx="2" fill="#16a085"/>
    <rect x="534" y="52"  width="7"  height="7"  rx="1" fill="#76d7c4"/>
    <rect x="546" y="52"  width="7"  height="7"  rx="1" fill="#76d7c4"/>
    <rect x="573" y="14"  width="28" height="38" rx="2" fill="#e74c3c"/>
    <rect x="576" y="20"  width="6"  height="6"  rx="1" fill="#f1948a"/>
    <rect x="586" y="20"  width="6"  height="6"  rx="1" fill="#f1948a"/>

    <!-- Block (6,2): mixed -->
    <rect x="522" y="142" width="92" height="92" rx="4" fill="#fdebd0"/>
    <rect x="528" y="150" width="76" height="76" rx="3" fill="#ecf0f1"/>
    <rect x="533" y="156" width="28" height="28" rx="2" fill="#2980b9"/>
    <rect x="537" y="162" width="6" height="6" rx="1" fill="#aed6f1"/>
    <rect x="548" y="162" width="6" height="6" rx="1" fill="#aed6f1"/>
    <rect x="537" y="172" width="6" height="6" rx="1" fill="#aed6f1"/>
    <rect x="548" y="172" width="6" height="6" rx="1" fill="#aed6f1"/>
    <rect x="569" y="156" width="28" height="28" rx="2" fill="#27ae60"/>
    <rect x="573" y="162" width="6" height="6" rx="1" fill="#a9dfbf"/>
    <rect x="584" y="162" width="6" height="6" rx="1" fill="#a9dfbf"/>
    <rect x="533" y="192" width="64" height="24" rx="2" fill="#95a5a6"/>
    <text x="565" y="208" text-anchor="middle" font-size="8" fill="#2c3e50" font-weight="bold">PREFEITURA</text>

    <!-- Block (0,4): bottom left -->
    <rect x="6"   y="282" width="88" height="92" rx="4" fill="#d4e8b0"/>
    <rect x="12"  y="288" width="76" height="76" rx="3" fill="#85c1e9" opacity="0.4"/>
    <!-- swimming pool -->
    <rect x="18"  y="294" width="62" height="50" rx="8" fill="#3498db" opacity="0.6"/>
    <ellipse cx="36" cy="315" rx="10" ry="8" fill="#5dade2" opacity="0.5"/>
    <text x="49" y="325" text-anchor="middle" font-size="14" fill="#fff">🏊</text>

    <!-- Block (2,4): bottom center -->
    <rect x="142" y="282" width="142" height="92" rx="4" fill="#c8d4b0"/>
    <!-- basketball court -->
    <rect x="148" y="288" width="130" height="80" rx="4" fill="#d4a96a"/>
    <rect x="150" y="290" width="126" height="76" rx="3" fill="none" stroke="#fff" stroke-width="2" opacity="0.7"/>
    <circle cx="213" cy="328" r="20" fill="none" stroke="#fff" stroke-width="2" opacity="0.7"/>
    <line x1="213" y1="290" x2="213" y2="366" stroke="#fff" stroke-width="2" opacity="0.7"/>
    <text x="213" y="332" text-anchor="middle" font-size="12" fill="#fff" opacity="0.9">🏀</text>

    <!-- Block (4,4): school -->
    <rect x="332" y="282" width="142" height="92" rx="4" fill="#fef9e7"/>
    <rect x="340" y="288" width="80" height="78" rx="3" fill="#f0b429"/>
    <rect x="344" y="294" width="12" height="12" rx="1" fill="#fff" opacity="0.7"/>
    <rect x="362" y="294" width="12" height="12" rx="1" fill="#fff" opacity="0.7"/>
    <rect x="380" y="294" width="12" height="12" rx="1" fill="#fff" opacity="0.7"/>
    <rect x="344" y="312" width="12" height="12" rx="1" fill="#fff" opacity="0.7"/>
    <rect x="362" y="312" width="12" height="12" rx="1" fill="#fff" opacity="0.7"/>
    <rect x="380" y="312" width="12" height="12" rx="1" fill="#fff" opacity="0.7"/>
    <rect x="355" y="336" width="20" height="30" rx="1" fill="#7b5e3d"/>
    <rect x="338" y="284" width="84" height="10" rx="2" fill="#e67e22"/>
    <text x="380" y="293" text-anchor="middle" font-size="7" fill="#fff" font-weight="bold">ESCOLA</text>
    <!-- flag -->
    <rect x="432" y="286" width="3" height="40" fill="#7b5e3d"/>
    <polygon points="435,286 455,294 435,302" fill="#27ae60"/>

    <!-- Block (6,4): bottom right -->
    <rect x="522" y="282" width="92" height="92" rx="4" fill="#d4e8b0"/>
    <ellipse cx="550" cy="315" rx="16" ry="14" fill="#3d9140"/>
    <ellipse cx="576" cy="308" rx="12" ry="11" fill="#2ecc71"/>
    <ellipse cx="590" cy="326" rx="14" ry="12" fill="#3d9140"/>
    <ellipse cx="558" cy="342" rx="10" ry="9"  fill="#2ecc71"/>

    <!-- === RECYCLING TRUCK === -->
    <!-- Truck body on horizontal road row 1 -->
    <rect x="156" y="104" width="90" height="28" rx="5" fill="#27ae60" stroke="#1a5c2e" stroke-width="2"/>
    <rect x="220" y="98"  width="30" height="34" rx="4" fill="#1e8449" stroke="#1a5c2e" stroke-width="2"/>
    <rect x="223" y="100" width="22" height="16" rx="2" fill="#a8d8f0" opacity="0.9"/>
    <!-- wheels -->
    <circle cx="172" cy="134" r="8" fill="#2c3e50"/>
    <circle cx="172" cy="134" r="4" fill="#7f8c8d"/>
    <circle cx="226" cy="134" r="8" fill="#2c3e50"/>
    <circle cx="226" cy="134" r="4" fill="#7f8c8d"/>
    <!-- recycling symbol on truck -->
    <text x="183" y="124" text-anchor="middle" font-size="14" fill="#fff">♻</text>

    <!-- === TRASH BINS on sidewalks === -->
    <!-- Row of colored bins near park -->
    <rect x="148" y="82" width="14" height="18" rx="3" fill="#3498db"/>
    <rect x="147" y="79" width="16" height="6"  rx="2" fill="#2980b9"/>
    <text x="155" y="94" text-anchor="middle" font-size="7" fill="#fff" font-weight="bold">P</text>
    <rect x="168" y="82" width="14" height="18" rx="3" fill="#27ae60"/>
    <rect x="167" y="79" width="16" height="6"  rx="2" fill="#1e8449"/>
    <text x="175" y="94" text-anchor="middle" font-size="7" fill="#fff" font-weight="bold">V</text>
    <rect x="188" y="82" width="14" height="18" rx="3" fill="#f39c12"/>
    <rect x="187" y="79" width="16" height="6"  rx="2" fill="#e67e22"/>
    <text x="195" y="94" text-anchor="middle" font-size="7" fill="#1a1a1a" font-weight="bold">M</text>
    <rect x="208" y="82" width="14" height="18" rx="3" fill="#e74c3c"/>
    <rect x="207" y="79" width="16" height="6"  rx="2" fill="#c0392b"/>
    <text x="215" y="94" text-anchor="middle" font-size="7" fill="#fff" font-weight="bold">V</text>

  </g>

  <!-- ── Crescer Verde logo area ── -->
  <rect x="990" y="415" width="180" height="50" rx="10" fill="#1b5e20" opacity="0.15"/>
  <rect x="990" y="415" width="180" height="50" rx="10" fill="none" stroke="#27ae60" stroke-width="2"/>
  <text x="1000" y="435" font-family="'Arial Black', sans-serif" font-size="11" font-weight="900" fill="#1b5e20">CRESCER</text>
  <text x="1000" y="451" font-family="'Arial Black', sans-serif" font-size="14" font-weight="900" fill="#27ae60">VERDE</text>
  <!-- leaf icon -->
  <ellipse cx="1148" cy="438" rx="20" ry="10" fill="#27ae60" opacity="0.8" transform="rotate(-35,1148,438)"/>
  <line x1="1138" y1="448" x2="1148" y2="438" stroke="#1b5e20" stroke-width="2"/>
</svg>
